<svg width="959" height="228" viewBox="0 0 959 228" fill="none" xmlns="http://www.w3.org/2000/svg">
<path d="M276.466 70.8C248.466 70.8 228.466 91.8 228.466 123C228.466 154.2 248.466 175.2 276.666 175.2C291.666 175.2 303.066 168.6 310.466 157.6L313.266 173H335.866V73H308.266V85C301.066 76.2 290.466 70.8 276.466 70.8ZM282.466 96C297.666 96 309.066 106.2 309.066 123C309.066 139.8 297.666 150 282.466 150C266.866 150 256.066 139.2 256.066 123C256.066 106.8 266.866 96 282.466 96ZM380.424 73H357.824V173H385.224V122C385.224 106 395.224 95.6 408.424 95.6C422.624 95.6 428.624 103.6 428.624 118.6V173H456.224V115.8C456.224 87 441.824 70.8 416.424 70.8C402.224 70.8 390.624 77.4 383.024 88.2L380.424 73ZM476.965 26.2V173H504.165V26.2H476.965ZM517.588 73L558.788 172.6C553.588 185.6 543.988 190.6 523.188 190.6L525.788 215.8C557.988 215.8 572.588 206.4 586.988 170.2L625.988 73H594.588L572.188 141.2L549.188 73H517.588ZM674.86 51H652.06L648.66 73H633.06V98.6H647.26V141.8C647.26 166 659.06 175.4 680.66 175.4C687.26 175.4 693.06 174.6 698.46 173.4V149C695.06 150 690.46 150.6 686.66 150.6C678.46 150.6 674.86 147.4 674.86 137V98.6H698.46V73H674.86V51ZM729.432 27.4C720.432 27.4 713.432 32.8 713.432 42.6C713.432 52.2 720.432 57.8 729.432 57.8C738.632 57.8 745.432 52.2 745.432 42.6C745.432 32.8 738.632 27.4 729.432 27.4ZM743.232 73H715.832V173H743.232V73ZM858.651 92.8C848.851 78 832.851 70.8 814.851 70.8C784.051 70.8 762.451 92.2 762.451 123C762.451 153.8 784.051 175.2 814.451 175.2C833.451 175.2 849.251 167 858.051 153.2L837.851 138.6C833.051 146.2 824.851 150.6 815.251 150.6C800.051 150.6 790.051 138.8 790.051 123C790.051 107.2 800.051 95.4 815.051 95.4C824.251 95.4 832.851 99.6 838.451 107.4L858.651 92.8ZM936.202 102.8L951.202 86.2C940.602 75.6 926.002 70.8 910.802 70.8C887.402 70.8 874.802 83 874.802 100.4C874.802 117.4 886.402 126.2 904.602 131.8C919.202 136.2 924.402 138.6 924.402 144.4C924.402 149.6 920.002 152.6 911.202 152.6C903.602 152.6 893.202 150.6 884.402 142.4L871.202 160.6C882.602 170.8 897.202 175.2 912.002 175.2C935.802 175.2 952.402 163.2 952.402 143.4C952.402 125.6 938.002 118.8 919.202 113C908.202 109.6 902.202 107 902.202 100.2C902.202 95.6 905.202 93 913.202 93C920.802 93 928.802 95.8 936.202 102.8Z" fill="#FFA26D"/>
<path fill-rule="evenodd" clip-rule="evenodd" d="M190 104.233C178.724 108.176 166.547 108.886 154.879 106.28C143.211 103.674 132.529 97.8585 124.07 89.5071C115.611 81.1557 109.721 70.6098 107.082 59.0902C104.442 47.5707 105.161 35.5486 109.155 24.4157H31.6667C23.2681 24.4157 15.2136 27.7096 9.27495 33.5728C3.3363 39.4359 0 47.388 0 55.6798V180.736C0 189.028 3.3363 196.98 9.27495 202.843C15.2136 208.706 23.2681 212 31.6667 212H158.333C166.732 212 174.786 208.706 180.725 202.843C186.664 196.98 190 189.028 190 180.736V104.233ZM95 66.1011C97.7995 66.1011 100.484 67.1991 102.464 69.1535C104.443 71.1079 105.556 73.7586 105.556 76.5225V159.893C105.556 162.657 104.443 165.308 102.464 167.262C100.484 169.217 97.7995 170.315 95 170.315C92.2005 170.315 89.5156 169.217 87.5361 167.262C85.5565 165.308 84.4444 162.657 84.4444 159.893V76.5225C84.4444 73.7586 85.5565 71.1079 87.5361 69.1535C89.5156 67.1991 92.2005 66.1011 95 66.1011ZM52.7778 97.3652C55.5773 97.3652 58.2621 98.4631 60.2417 100.418C62.2212 102.372 63.3333 105.023 63.3333 107.787V159.893C63.3333 162.657 62.2212 165.308 60.2417 167.262C58.2621 169.217 55.5773 170.315 52.7778 170.315C49.9783 170.315 47.2934 169.217 45.3139 167.262C43.3343 165.308 42.2222 162.657 42.2222 159.893V107.787C42.2222 105.023 43.3343 102.372 45.3139 100.418C47.2934 98.4631 49.9783 97.3652 52.7778 97.3652ZM137.222 128.629C140.022 128.629 142.707 129.727 144.686 131.682C146.666 133.636 147.778 136.287 147.778 139.051V159.893C147.778 162.657 146.666 165.308 144.686 167.262C142.707 169.217 140.022 170.315 137.222 170.315C134.423 170.315 131.738 169.217 129.758 167.262C127.779 165.308 126.667 162.657 126.667 159.893V139.051C126.667 136.287 127.779 133.636 129.758 131.682C131.738 129.727 134.423 128.629 137.222 128.629Z" fill="#FFA26D"/>
<path d="M148.963 31.9C134.963 31.9 124.963 42.4 124.963 58C124.963 73.6 134.963 84.1 149.063 84.1C156.563 84.1 162.263 80.8 165.963 75.3L167.363 83H178.663V33H164.863V39C161.263 34.6 155.963 31.9 148.963 31.9ZM151.963 44.5C159.563 44.5 165.263 49.6 165.263 58C165.263 66.4 159.563 71.5 151.963 71.5C144.163 71.5 138.763 66.1 138.763 58C138.763 49.9 144.163 44.5 151.963 44.5Z" fill="#FFA26D"/>
</svg>
